<svg id="レイヤー_1" data-name="レイヤー 1" xmlns="http://www.w3.org/2000/svg" viewBox="0 0 1224 137"><defs><style>.cls-1{fill:#71c6d4;}</style></defs><title>subtitl</title><path class="cls-1" d="M83.5,83.89l-4.32,4.28a1.46,1.46,0,0,1-1,.33H52.16c-.77,0-1.16-.33-1.16-1v-38a1,1,0,0,1,1.16-1.16H78.32a1.08,1.08,0,0,1,.91.39L83.5,53a1.27,1.27,0,0,1,.43.91v29A1.57,1.57,0,0,1,83.5,83.89ZM79.23,55l-2.3-2.31H55.52V84.23H76.93L79.23,82Z"/><path class="cls-1" d="M117.34,88.65H89.55a.93.93,0,0,1-1.06-1.06V72.52c0-.72.34-1.11,1.06-1.11H114V62.63H89.16c-.48,0-.67-.19-.67-.67V59.27c0-.48.19-.67.67-.67h28.23a1,1,0,0,1,1.06,1.1V87.54A1,1,0,0,1,117.34,88.65Zm-3.31-14H93v9.93h21Z"/><path class="cls-1" d="M150,88.79h-3c-.43,0-.67-.24-.67-.58V62.82H127.27v25.3a.61.61,0,0,1-.67.67h-3a.59.59,0,0,1-.67-.67V59.7a.94.94,0,0,1,1-1.06H149.6a1,1,0,0,1,1.1,1.06V88.12A.61.61,0,0,1,150,88.79Z"/><path class="cls-1" d="M182.86,88.65H156.27a.93.93,0,0,1-1.06-1.06V59.75c0-.72.34-1.11,1-1.11h26.69c.38,0,.57.29.57.68v2.83c0,.48-.19.67-.57.67H159.58v21.7h23.33q.57,0,.57.72V88A.56.56,0,0,1,182.86,88.65Z"/><path class="cls-1" d="M216.08,88.65h-27.8c-.77,0-1.1-.39-1.1-1.16V59.7c0-.72.33-1.1,1.15-1.1h27.41a1,1,0,0,1,1.1,1V74.58c0,.72-.38,1.06-1.15,1.06H191.55v8.93h24.57c.44,0,.72.19.72.67v2.69A.69.69,0,0,1,216.08,88.65Zm-3.65-26.07H191.55v9.79h20.88Z"/><path class="cls-1" d="M269.88,83.89l-4.32,4.28a1.44,1.44,0,0,1-1,.33H238.54c-.77,0-1.16-.33-1.16-1v-38a1,1,0,0,1,1.16-1.16H264.7a1.08,1.08,0,0,1,.91.39L269.88,53a1.28,1.28,0,0,1,.44.91v29A1.58,1.58,0,0,1,269.88,83.89ZM265.61,55l-2.3-2.31H241.9V84.23h21.41l2.3-2.26Z"/><path class="cls-1" d="M303.72,88.65H275.93a.93.93,0,0,1-1.06-1.06V72.52c0-.72.34-1.11,1.06-1.11h24.48V62.63H275.54c-.48,0-.67-.19-.67-.67V59.27c0-.48.19-.67.67-.67h28.23a1,1,0,0,1,1.06,1.1V87.54A1,1,0,0,1,303.72,88.65Zm-3.31-14h-21v9.93h21Z"/><path class="cls-1" d="M336.41,88.79h-3c-.43,0-.67-.24-.67-.58V62.82h-19.1v25.3a.61.61,0,0,1-.68.67h-3a.59.59,0,0,1-.67-.67V59.7a.94.94,0,0,1,1-1.06H336a1,1,0,0,1,1.1,1.06V88.12A.61.61,0,0,1,336.41,88.79Z"/><path class="cls-1" d="M369.24,88.65H342.65a.93.93,0,0,1-1.06-1.06V59.75c0-.72.34-1.11,1-1.11h26.69c.38,0,.58.29.58.68v2.83c0,.48-.2.67-.58.67H346v21.7h23.33c.38,0,.58.24.58.72V88A.56.56,0,0,1,369.24,88.65Z"/><path class="cls-1" d="M402.46,88.65h-27.8c-.77,0-1.1-.39-1.1-1.16V59.7c0-.72.33-1.1,1.15-1.1h27.41a1,1,0,0,1,1.1,1V74.58c0,.72-.38,1.06-1.15,1.06H377.93v8.93H402.5c.44,0,.72.19.72.67v2.69A.69.69,0,0,1,402.46,88.65Zm-3.65-26.07H377.93v9.79h20.88Z"/><path class="cls-1" d="M456.36,88.69h-3.55a.84.84,0,0,1-.82-.43L441.24,71H428.33V88c0,.53-.24.72-.68.72h-3.12c-.48,0-.72-.19-.72-.67V49.62c0-.77.34-1.15,1.16-1.15h30.38a1,1,0,0,1,1.15,1.15V69.88A1,1,0,0,1,455.35,71h-9.21L457,87.73a1.43,1.43,0,0,1,.24.53C457.22,88.6,456.89,88.69,456.36,88.69ZM452,52.88H428.33V66.71H452Z"/><path class="cls-1" d="M491.06,88.65H463.27c-.77,0-1.1-.39-1.1-1.16V59.7c0-.72.33-1.1,1.15-1.1h27.41a1,1,0,0,1,1.1,1V74.58c0,.72-.38,1.06-1.15,1.06H466.53v8.93h24.58c.43,0,.72.19.72.67v2.69A.7.7,0,0,1,491.06,88.65Zm-3.64-26.07H466.53v9.79h20.89Z"/><path class="cls-1" d="M525.91,59.27l-10.42,28.8a.85.85,0,0,1-1,.58h-7.82a.8.8,0,0,1-.91-.58l-10.42-28.8a1.22,1.22,0,0,1-.1-.34c0-.29.24-.43.58-.43h3.31a.74.74,0,0,1,.77.53L509,84.47h3.32l9-25.44a.65.65,0,0,1,.72-.53h3.36c.39,0,.53.1.53.43A.93.93,0,0,1,525.91,59.27Z"/><path class="cls-1" d="M557,88.65h-26.3c-.77,0-1.11-.34-1.11-1.06V59.7a1,1,0,0,1,1.06-1.06H557a1,1,0,0,1,1.11,1.06V87.59C558.12,88.31,557.73,88.65,557,88.65ZM553.8,62.82H534v21.7H553.8Z"/><path class="cls-1" d="M566.76,88.79h-3c-.43,0-.72-.19-.72-.67V48.85a.6.6,0,0,1,.63-.67h3.12c.48,0,.67.24.67.72V88.12C567.43,88.6,567.24,88.79,566.76,88.79Z"/><path class="cls-1" d="M598.29,88.65H573.48c-.82,0-1.16-.34-1.16-1.06V59.27c0-.48.2-.67.72-.67H576a.66.66,0,0,1,.72.72v25.2H595V59.27c0-.48.29-.67.72-.67h2.93c.48,0,.67.19.67.72V87.59A.93.93,0,0,1,598.29,88.65Z"/><path class="cls-1" d="M625.85,62.87H613.56V84.52h11.57c.38,0,.57.19.57.67V88c0,.48-.19.68-.62.68H609.86a.61.61,0,0,1-.67-.68V62.87h-5.91c-.48,0-.72-.19-.72-.67V59.36a.61.61,0,0,1,.68-.67h6V53.55a.59.59,0,0,1,.62-.67h3.07a.59.59,0,0,1,.68.67v5.14h12.29a.59.59,0,0,1,.62.67V62.2C626.47,62.68,626.23,62.87,625.85,62.87Z"/><path class="cls-1" d="M633.91,53.41h-3.07c-.44,0-.68-.19-.68-.67V48.85a.6.6,0,0,1,.63-.67h3.12a.59.59,0,0,1,.67.67v3.84C634.58,53.17,634.39,53.41,633.91,53.41Zm0,35.28h-3.07c-.44,0-.68-.19-.68-.62V59.12a.6.6,0,0,1,.63-.67h3.12c.48,0,.67.29.67.72V88C634.58,88.5,634.39,88.69,633.91,88.69Z"/><path class="cls-1" d="M666.89,88.65H640.58c-.77,0-1.1-.34-1.1-1.06V59.7a.94.94,0,0,1,1-1.06h26.36A1,1,0,0,1,668,59.7V87.59C668,88.31,667.61,88.65,666.89,88.65Zm-3.22-25.83H643.84v21.7h19.83Z"/><path class="cls-1" d="M699.62,88.79h-3c-.44,0-.68-.24-.68-.58V62.82h-19.1v25.3a.61.61,0,0,1-.67.67h-3a.59.59,0,0,1-.67-.67V59.7a.94.94,0,0,1,1.06-1.06h25.63a1,1,0,0,1,1.1,1.06V88.12A.61.61,0,0,1,699.62,88.79Z"/><path class="cls-1" d="M736.82,53.07H721.55a.59.59,0,0,1-.67-.62V50a.59.59,0,0,1,.67-.67h5.86V47.07c0-.48.24-.72.67-.72h2.4c.48,0,.68.24.68.72v2.26h5.66c.48,0,.72.24.72.67v2.45A.63.63,0,0,1,736.82,53.07Zm-1.1,8H722.8a.61.61,0,0,1-.67-.67V58.26a.61.61,0,0,1,.67-.67h13a.61.61,0,0,1,.68.67v2.11A.64.64,0,0,1,735.72,61Zm0,8H722.8a.59.59,0,0,1-.67-.67V66.32a.61.61,0,0,1,.67-.67h13c.44,0,.68.24.68.72v2A.66.66,0,0,1,735.72,69.06Zm-.39,19.83h-12.1c-.76,0-1.1-.34-1.1-1.06V74.58a1,1,0,0,1,1.1-1.1h12.1a1,1,0,0,1,1.11,1.15V87.78A1,1,0,0,1,735.33,88.89Zm-2.35-12h-7.39v8.69H733Zm30.34-10H739.51c-.48,0-.67-.19-.67-.67V64a.59.59,0,0,1,.67-.67h1.68l-1-7c0-.38.19-.58.62-.58h1.44q.66,0,.72.72l1,6.87h2.55V53.89h-5.76a.59.59,0,0,1-.68-.67V51.06c0-.43.2-.67.63-.67h2.93l-1.3-3.22a.67.67,0,0,1-.1-.29c0-.24.2-.38.53-.38h2.55A.68.68,0,0,1,746,47l1.34,3.41h8.26L756.93,47a.7.7,0,0,1,.72-.48h2.5c.34,0,.48.14.48.33a.8.8,0,0,1,0,.34l-1.25,3.22h2.74a.61.61,0,0,1,.67.67v2.11c0,.48-.24.72-.67.72h-5.76v9.46h2.45l1-7a.6.6,0,0,1,.67-.58H762c.39,0,.63.15.63.48l-1.11,7.11h1.78A.61.61,0,0,1,764,64v2.16A.59.59,0,0,1,763.32,66.85Zm-1.68,22H741.19c-.77,0-1.11-.34-1.11-1.06V71.27c0-.72.34-1.11,1.06-1.11h20.5c.72,0,1.1.39,1.1,1.16V87.78A1,1,0,0,1,761.64,88.89Zm-2.79-15.56H744V78h14.88Zm0,7.64H744v4.8h14.88Zm-5.66-27.08h-3.65v9.46h3.65Z"/><path class="cls-1" d="M811.37,50.82H792.16l-2.59,6.48h20.12a1,1,0,0,1,1.1,1.1V87.78c0,.77-.38,1.11-1.15,1.11H771.23c-.72,0-1.05-.34-1.05-1.06V58.4c0-.72.29-1.1,1.05-1.1h13.93l2.59-6.48h-18a.64.64,0,0,1-.72-.72V47.94a.59.59,0,0,1,.67-.67h41.72a.61.61,0,0,1,.67.67V50.1A.64.64,0,0,1,811.37,50.82Zm-30.25,9.84h-7V85.53h7Zm15.22,0H784.63v6.19h11.71Zm0,9.31H784.63v6.24h11.71Zm0,9.36H784.63v6.2h11.71Zm10.47-18.67h-7V85.53h7Z"/><path class="cls-1" d="M819.81,88.31a.64.64,0,0,1-.72.67h-1.54c-.43,0-.76-.14-.72-.57l.87-13.69c0-.43.24-.67.67-.67H820a.54.54,0,0,1,.62.58v.09Zm14.21-17h-6.43V88.89c0,.43-.24.67-.72.67h-2.16c-.48,0-.67-.19-.67-.67V71.36h-6.15c-.72,0-1.06-.33-1.06-1.1V68.1a1.21,1.21,0,0,1,.2-.72l6.48-8h-5.62c-.72,0-1.06-.33-1.06-1V55.71a1.13,1.13,0,0,1,.24-.76l6.63-8.07a1.12,1.12,0,0,1,.86-.38h3c.29,0,.43,0,.43.19s-.1.19-.19.34l-7.25,8.88h5.81l2.83-3.46A1.15,1.15,0,0,1,830,52h3.07c.29,0,.43.09.43.24s-.1.19-.19.33l-12.2,15.08H831l-1-5.23c0-.34.19-.48.58-.48h1.92a.56.56,0,0,1,.62.57l1.49,8.21c0,.1.05.14.05.19C834.6,71.22,834.36,71.36,834,71.36ZM833.78,89h-1.44c-.48,0-.67-.19-.72-.67l-.82-13.68c0-.39.24-.58.68-.58h1.44c.48,0,.62.24.67.67l.86,13.59v.1C834.45,88.84,834.21,89,833.78,89Zm24.15-21.41H850.1c-.48,0-.72-.14-.72-.67V64.31c0-.43.24-.67.72-.67h5V51.11h-8.83l-5.52,16.22a.63.63,0,0,1-.67.48h-2.83c-.34,0-.53-.09-.53-.38a.59.59,0,0,1,0-.29l5.61-16H837a.61.61,0,0,1-.67-.68V47.89a.61.61,0,0,1,.67-.67H858a1,1,0,0,1,1.11,1.1v18.2C859.08,67.24,858.69,67.57,857.93,67.57Zm0,21.27H838c-.77,0-1.11-.34-1.11-1V71.7c0-.72.34-1.1,1.06-1.1h20a1,1,0,0,1,1.1,1.1V87.78C859,88.5,858.6,88.84,857.88,88.84Zm-3-14.45h-14V85.14h14Z"/><path class="cls-1" d="M908.42,62.15a1.17,1.17,0,0,1-.33-.1L886.48,50.29,864.93,62.05a.5.5,0,0,1-.34.1c-.19,0-.24-.15-.24-.48V57.83a.66.66,0,0,1,.39-.72l19.63-10.66a2.19,2.19,0,0,1,.82-.19h2.59a2.18,2.18,0,0,1,.77.19l19.68,10.66a.67.67,0,0,1,.48.72v3.84C908.71,62,908.61,62.15,908.42,62.15Zm-31.2,11.28L872.75,89c-.09.34-.33.43-.67.43h-3.41c-.38,0-.57-.09-.57-.38a2.42,2.42,0,0,0,0-.24L872.9,73V63.06c0-.43.14-.67.67-.67h3.07c.48,0,.72.24.72.67v9.55A2.17,2.17,0,0,1,877.22,73.43Zm22.23,16.08h-3.12c-.49,0-.68-.24-.68-.67V63.06c0-.43.19-.67.68-.67h3.12c.43,0,.67.24.67.72V88.79C900.12,89.27,899.88,89.51,899.45,89.51Z"/><path class="cls-1" d="M956.13,62.39a.49.49,0,0,1-.33-.1L934.44,49.62,913.07,62.29a.49.49,0,0,1-.33.1c-.15,0-.24-.15-.24-.43V58.45a.68.68,0,0,1,.43-.72L931.6,46.45a1.49,1.49,0,0,1,.77-.24h4.18a1.47,1.47,0,0,1,.72.24L956,57.73a.84.84,0,0,1,.48.72V62C956.47,62.24,956.37,62.39,956.13,62.39Zm-3.21,26.54H916c-.72,0-1.1-.28-1.1-1.05V72.08A1,1,0,0,1,916,71h36.92a1,1,0,0,1,1.1,1.1v15.8C954,88.6,953.64,88.93,952.92,88.93ZM949.7,65H919.31a.59.59,0,0,1-.67-.67v-2.6c0-.43.19-.67.63-.67H949.7a.61.61,0,0,1,.67.67v2.55C950.37,64.79,950.13,65,949.7,65Zm.19,9.74H919V85.19h30.86Z"/><path class="cls-1" d="M1001.69,89.22h-9.27c-.48,0-.67-.19-.67-.67v-2.4c0-.43.19-.67.62-.67h6.24V51.06H966.4V88.79c0,.48-.24.67-.72.67H962.9c-.43,0-.67-.14-.67-.62V48.37a1,1,0,0,1,1.1-1.1h38.36a1,1,0,0,1,1.1,1.1V88.12A1,1,0,0,1,1001.69,89.22Zm-9-29.18H972.26a.61.61,0,0,1-.67-.68v-2.2a.61.61,0,0,1,.67-.68h20.45a.65.65,0,0,1,.72.68v2.2A.65.65,0,0,1,992.71,60Zm-.43,24.19H972.74c-.77,0-1.11-.34-1.11-1.06V66.47c0-.72.34-1.11,1.06-1.11h19.64a1,1,0,0,1,1.1,1.11V83.13A1,1,0,0,1,992.28,84.23Zm-2.74-15.17H975.48V80.58h14.06Z"/><path class="cls-1" d="M1052.52,88.55h-31c-.52,0-.76-.14-.76-.67V85c0-.53.24-.77.67-.77h27.7v-14h-23.57a.64.64,0,0,1-.72-.72V66.76c0-.53.19-.72.72-.72h23.57V52.74h-27.61c-.52,0-.76-.19-.76-.72V49.14c0-.53.24-.72.76-.72h31a1,1,0,0,1,1.1,1.1v38C1053.62,88.21,1053.24,88.55,1052.52,88.55Z"/><path class="cls-1" d="M1078.24,62.82h-11.9l-3.55,2.78V88.12a.64.64,0,0,1-.72.67h-3a.59.59,0,0,1-.67-.67V64.5a1.06,1.06,0,0,1,.48-.82l5.81-4.7a1.36,1.36,0,0,1,1-.34h12.57a.6.6,0,0,1,.68.68v2.83A.61.61,0,0,1,1078.24,62.82Z"/><path class="cls-1" d="M1109,88.65h-26a.92.92,0,0,1-1.06-1.06V59.7a.94.94,0,0,1,1.06-1.06h22.7V49c0-.48.19-.67.67-.67h3c.48,0,.67.24.67.72V87.54C1110,88.31,1109.69,88.65,1109,88.65Zm-3.26-25.83h-19.44v21.7h19.44Z"/><path class="cls-1" d="M1151.88,88.6h-3.07c-.44,0-.63-.24-.63-.72V56l-12.53,24.39a1,1,0,0,1-.91.43h-2.3a.83.83,0,0,1-.82-.43L1119.09,56V87.88c0,.48-.19.72-.62.72h-3.08c-.43,0-.62-.24-.62-.72V49.33a.86.86,0,0,1,.86-1h3.27a1.26,1.26,0,0,1,1.1.58l13.73,26.25L1147.17,49a1.19,1.19,0,0,1,1.2-.62h3.27c.57,0,.86.29.86,1V87.88C1152.5,88.36,1152.31,88.6,1151.88,88.6Z"/><path class="cls-1" d="M1161.38,53.41h-3.07c-.44,0-.68-.19-.68-.67V48.85a.6.6,0,0,1,.63-.67h3.12a.59.59,0,0,1,.67.67v3.84C1162.05,53.17,1161.86,53.41,1161.38,53.41Zm0,35.28h-3.07c-.44,0-.68-.19-.68-.62V59.12a.6.6,0,0,1,.63-.67h3.12c.48,0,.67.29.67.72V88C1162.05,88.5,1161.86,88.69,1161.38,88.69Z"/><path class="cls-1" d="M1195,88.55h-3.65c-.43,0-.57-.1-.72-.38L1182,75.06h-2.35L1171,88.17a.83.83,0,0,1-.82.38h-3.6c-.29,0-.43-.14-.43-.38a1,1,0,0,1,.14-.44l9.89-14.59-9.65-13.73a.83.83,0,0,1-.09-.43c0-.24.14-.34.48-.34h3.5c.48,0,.58.1.77.34l8.5,12.1h2.25l8.45-12.1c.19-.24.29-.34.77-.34h3.55c.29,0,.48.1.48.29a.72.72,0,0,1-.19.48l-9.55,13.73,9.84,14.59a1.24,1.24,0,0,1,.19.48C1195.46,88.41,1195.32,88.55,1195,88.55Z"/></svg>