<svg id="subtitle-mobile" data-name="subtitle-mobile" xmlns="http://www.w3.org/2000/svg" viewBox="0 0 545 355"><defs><style>.cls-1{fill:#71c6d4;}</style></defs><title>subtitl</title><path class="cls-1" d="M80.89,53.17l-4.32,4.27a1.49,1.49,0,0,1-1,.34H49.54c-.77,0-1.15-.34-1.15-1.06v-38a1,1,0,0,1,1.15-1.15H75.7a1.08,1.08,0,0,1,.92.39l4.27,4.32a1.25,1.25,0,0,1,.43.91v29A1.59,1.59,0,0,1,80.89,53.17ZM76.62,24.22l-2.31-2.3H52.9V53.51H74.31l2.31-2.26Z"/><path class="cls-1" d="M114.73,57.92H86.93a.91.91,0,0,1-1.05-1.05V41.79c0-.72.33-1.1,1.05-1.1h24.49V31.9H86.55c-.48,0-.67-.19-.67-.67V28.54c0-.48.19-.67.67-.67h28.23c.67,0,1,.34,1,1.11V56.82A1,1,0,0,1,114.73,57.92Zm-3.31-14h-21v9.94h21Z"/><path class="cls-1" d="M147.41,58.07h-3c-.43,0-.67-.24-.67-.58V32.1H124.66V57.4a.61.61,0,0,1-.67.67h-3a.59.59,0,0,1-.67-.67V29a.94.94,0,0,1,1.06-1.06H147A1,1,0,0,1,148.09,29V57.4A.61.61,0,0,1,147.41,58.07Z"/><path class="cls-1" d="M180.25,57.92h-26.6a.91.91,0,0,1-1.05-1.05V29c0-.72.33-1.1,1-1.1h26.69c.39,0,.58.29.58.67v2.83c0,.48-.19.68-.58.68H157V53.79h23.33c.39,0,.58.24.58.73V57.3A.55.55,0,0,1,180.25,57.92Z"/><path class="cls-1" d="M213.46,57.92H185.67c-.77,0-1.11-.38-1.11-1.15V29c0-.72.34-1.11,1.16-1.11h27.41a1,1,0,0,1,1.1,1.06V43.86c0,.72-.38,1-1.15,1H188.93v8.93h24.58c.43,0,.72.19.72.68V57.2A.69.69,0,0,1,213.46,57.92Zm-3.65-26.06H188.93v9.79h20.88Z"/><path class="cls-1" d="M80.89,137.17l-4.32,4.27a1.49,1.49,0,0,1-1,.34H49.54c-.77,0-1.15-.34-1.15-1.06v-38a1,1,0,0,1,1.15-1.15H75.7a1.08,1.08,0,0,1,.92.39l4.27,4.32a1.25,1.25,0,0,1,.43.91v29A1.59,1.59,0,0,1,80.89,137.17Zm-4.27-28.95-2.31-2.3H52.9v31.59H74.31l2.31-2.26Z"/><path class="cls-1" d="M114.73,141.92H86.93a.91.91,0,0,1-1.05-1V125.79c0-.72.33-1.1,1.05-1.1h24.49V115.9H86.55c-.48,0-.67-.19-.67-.67v-2.69c0-.48.19-.67.67-.67h28.23c.67,0,1,.34,1,1.11v27.84A1,1,0,0,1,114.73,141.92Zm-3.31-14h-21v9.94h21Z"/><path class="cls-1" d="M147.41,142.07h-3c-.43,0-.67-.24-.67-.58V116.1H124.66v25.3a.61.61,0,0,1-.67.67h-3a.59.59,0,0,1-.67-.67V113a.94.94,0,0,1,1.06-1.06H147a1,1,0,0,1,1.11,1.06V141.4A.61.61,0,0,1,147.41,142.07Z"/><path class="cls-1" d="M180.25,141.92h-26.6a.91.91,0,0,1-1.05-1V113c0-.72.33-1.1,1-1.1h26.69c.39,0,.58.29.58.67v2.83c0,.48-.19.68-.58.68H157v21.69h23.33c.39,0,.58.24.58.73v2.78A.55.55,0,0,1,180.25,141.92Z"/><path class="cls-1" d="M213.46,141.92H185.67c-.77,0-1.11-.38-1.11-1.15V113c0-.72.34-1.11,1.16-1.11h27.41a1,1,0,0,1,1.1,1.06v14.93c0,.72-.38,1-1.15,1H188.93v8.93h24.58c.43,0,.72.19.72.68v2.68A.69.69,0,0,1,213.46,141.92Zm-3.65-26.06H188.93v9.79h20.88Z"/><path class="cls-1" d="M81,226H77.43a.83.83,0,0,1-.81-.43L65.86,208.31H53v16.94c0,.53-.24.72-.67.72H49.16c-.48,0-.72-.19-.72-.67V186.9c0-.77.33-1.16,1.15-1.16H80a1,1,0,0,1,1.15,1.16v20.25A1,1,0,0,1,80,208.31H70.76L81.61,225a1.54,1.54,0,0,1,.24.53C81.85,225.88,81.51,226,81,226Zm-4.36-35.81H53V204H76.62Z"/><path class="cls-1" d="M115.69,225.92H87.89c-.76,0-1.1-.38-1.1-1.15V197c0-.72.34-1.11,1.15-1.11h27.41a1,1,0,0,1,1.11,1.06v14.93c0,.72-.39,1-1.16,1H91.16v8.93h24.58c.43,0,.72.19.72.68v2.68A.69.69,0,0,1,115.69,225.92ZM112,199.86H91.16v9.79H112Z"/><path class="cls-1" d="M150.54,196.54l-10.42,28.81c-.19.48-.48.57-1,.57h-7.83c-.48,0-.72-.09-.91-.57L120,196.54a1.51,1.51,0,0,1-.09-.33c0-.29.24-.43.57-.43h3.32a.73.73,0,0,1,.76.52l9.08,25.45H137l9-25.45a.66.66,0,0,1,.72-.52h3.37c.38,0,.52.09.52.43A1.08,1.08,0,0,1,150.54,196.54Z"/><path class="cls-1" d="M181.64,225.92H155.33c-.77,0-1.1-.33-1.1-1V197a.94.94,0,0,1,1.05-1.06h26.36a1,1,0,0,1,1.1,1.06v27.89C182.74,225.59,182.36,225.92,181.64,225.92Zm-3.22-25.82H158.6v21.69h19.82Z"/><path class="cls-1" d="M191.38,226.07h-3c-.44,0-.72-.19-.72-.67V186.13a.59.59,0,0,1,.62-.67h3.12c.48,0,.67.24.67.72V225.4C192.05,225.88,191.86,226.07,191.38,226.07Z"/><path class="cls-1" d="M222.92,225.92H198.1c-.82,0-1.15-.33-1.15-1V196.54c0-.48.19-.67.72-.67h2.93a.66.66,0,0,1,.72.72v25.2h18.33V196.54c0-.48.29-.67.72-.67h2.93c.48,0,.67.19.67.72v28.28A.91.91,0,0,1,222.92,225.92Z"/><path class="cls-1" d="M250.47,200.15H238.18v21.64h11.57c.38,0,.58.2.58.68v2.78c0,.48-.2.67-.63.67H234.48a.61.61,0,0,1-.67-.67v-25.1h-5.9c-.48,0-.72-.2-.72-.68v-2.83a.61.61,0,0,1,.67-.67h5.95v-5.14a.6.6,0,0,1,.63-.67h3.07a.59.59,0,0,1,.67.67V196h12.29a.59.59,0,0,1,.62.67v2.83C251.09,200,250.85,200.15,250.47,200.15Z"/><path class="cls-1" d="M258.53,190.69h-3.07a.59.59,0,0,1-.67-.67v-3.89a.59.59,0,0,1,.62-.67h3.12a.59.59,0,0,1,.67.67V190C259.2,190.45,259,190.69,258.53,190.69Zm0,35.28h-3.07c-.43,0-.67-.19-.67-.62V196.4a.59.59,0,0,1,.62-.67h3.12c.48,0,.67.29.67.72V225.3C259.2,225.78,259,226,258.53,226Z"/><path class="cls-1" d="M291.51,225.92H265.2c-.76,0-1.1-.33-1.1-1V197a.94.94,0,0,1,1.06-1.06h26.35a1,1,0,0,1,1.1,1.06v27.89C292.61,225.59,292.23,225.92,291.51,225.92Zm-3.22-25.82H268.47v21.69h19.82Z"/><path class="cls-1" d="M324.25,226.07h-3c-.43,0-.67-.24-.67-.58V200.1H301.49v25.3a.61.61,0,0,1-.67.67h-3a.59.59,0,0,1-.67-.67V197a.94.94,0,0,1,1.06-1.06h25.63a1,1,0,0,1,1.11,1.06V225.4A.61.61,0,0,1,324.25,226.07Z"/><path class="cls-1" d="M64.18,274.35H48.92a.59.59,0,0,1-.67-.62v-2.45a.59.59,0,0,1,.67-.67h5.85v-2.26c0-.48.24-.72.68-.72h2.4c.48,0,.67.24.67.72v2.26h5.66c.48,0,.72.24.72.67v2.45C64.9,274.11,64.62,274.35,64.18,274.35Zm-1.1,8H50.17a.61.61,0,0,1-.68-.67v-2.11a.61.61,0,0,1,.68-.68h13a.61.61,0,0,1,.67.68v2.11A.64.64,0,0,1,63.08,282.32Zm0,8H50.17c-.44,0-.68-.19-.68-.67V287.6a.61.61,0,0,1,.68-.67h13c.43,0,.67.24.67.72v2A.66.66,0,0,1,63.08,290.34Zm-.39,19.82H50.6c-.77,0-1.11-.33-1.11-1.05V295.86a1,1,0,0,1,1.11-1.11H62.69a1,1,0,0,1,1.11,1.16v13.15A1,1,0,0,1,62.69,310.16Zm-2.35-12H53v8.69h7.39Zm30.34-10H66.87c-.48,0-.67-.19-.67-.67V285.3a.59.59,0,0,1,.67-.67h1.68l-1-7c0-.39.2-.58.63-.58h1.44q.65,0,.72.72l1,6.87h2.54v-9.46H68.12a.59.59,0,0,1-.67-.67v-2.16c0-.44.19-.68.62-.68H71l-1.3-3.21a.81.81,0,0,1-.09-.29c0-.24.19-.38.53-.38h2.54a.66.66,0,0,1,.67.48l1.35,3.4H83l1.35-3.4a.69.69,0,0,1,.72-.48h2.49c.34,0,.48.14.48.33a.8.8,0,0,1,0,.34l-1.24,3.21h2.73a.61.61,0,0,1,.68.68v2.11c0,.48-.24.72-.68.72H83.67v9.46h2.45l1-7a.61.61,0,0,1,.67-.58h1.59c.38,0,.62.14.62.48l-1.1,7.11h1.77a.61.61,0,0,1,.67.67v2.16A.59.59,0,0,1,90.68,288.13Zm-1.68,22H68.55c-.77,0-1.1-.33-1.1-1.05V292.55c0-.72.33-1.11,1-1.11H89a1,1,0,0,1,1.11,1.15v16.47A1,1,0,0,1,89,310.16Zm-2.78-15.55H71.34v4.7H86.22Zm0,7.63H71.34V307H86.22Zm-5.67-27.07H76.9v9.46h3.65Z"/><path class="cls-1" d="M138.73,272.1h-19.2l-2.59,6.48h20.11a1,1,0,0,1,1.1,1.1v29.38c0,.77-.38,1.1-1.15,1.1H98.6c-.72,0-1.06-.33-1.06-1.05V279.68c0-.72.29-1.1,1.06-1.1h13.92l2.59-6.48h-18a.64.64,0,0,1-.72-.72v-2.16a.59.59,0,0,1,.67-.68h41.72a.61.61,0,0,1,.67.68v2.16A.64.64,0,0,1,138.73,272.1Zm-30.24,9.84h-7V306.8h7Zm15.21,0H112v6.19H123.7Zm0,9.31H112v6.24H123.7Zm0,9.36H112v6.19H123.7Zm10.47-18.67h-7V306.8h7Z"/><path class="cls-1" d="M147.17,309.59a.63.63,0,0,1-.72.67h-1.53c-.43,0-.77-.14-.72-.58l.86-13.68c.05-.43.24-.67.67-.67h1.59a.54.54,0,0,1,.62.58V296Zm14.21-16.95H155v17.52c0,.44-.24.67-.72.67h-2.16c-.48,0-.67-.19-.67-.67V292.64h-6.15c-.72,0-1.05-.33-1.05-1.1v-2.16a1.28,1.28,0,0,1,.19-.72l6.48-8h-5.62c-.72,0-1.05-.34-1.05-1.06V277a1.14,1.14,0,0,1,.24-.77l6.62-8.06a1.12,1.12,0,0,1,.87-.38h3c.29,0,.43,0,.43.19s-.09.19-.19.33l-7.25,8.88h5.81l2.83-3.45a1.15,1.15,0,0,1,.82-.43h3.07c.29,0,.43.09.43.24s-.09.19-.19.33L148.52,289h9.79l-1-5.24c0-.33.19-.48.58-.48h1.92a.56.56,0,0,1,.62.58l1.49,8.21c0,.09.05.14.05.19C162,292.5,161.72,292.64,161.38,292.64Zm-.24,17.62H159.7c-.48,0-.67-.19-.72-.67l-.81-13.68c0-.39.24-.58.67-.58h1.44c.48,0,.62.24.67.67l.86,13.59v.09C161.81,310.12,161.58,310.26,161.14,310.26Zm24.15-21.41h-7.83c-.48,0-.72-.14-.72-.67v-2.6c0-.43.24-.67.72-.67h5V272.38h-8.84l-5.52,16.23a.62.62,0,0,1-.67.48H164.6c-.34,0-.53-.1-.53-.38a.58.58,0,0,1,.05-.29l5.62-16h-5.33a.61.61,0,0,1-.67-.67v-2.54a.61.61,0,0,1,.67-.67h20.93a1,1,0,0,1,1.1,1.1v18.19C186.44,288.51,186.06,288.85,185.29,288.85Zm0,21.27H165.32c-.77,0-1.1-.34-1.1-1V293c0-.72.33-1.11,1.05-1.11h20a1,1,0,0,1,1.1,1.11v16.08C186.39,309.78,186,310.12,185.24,310.12Zm-3-14.45h-14v10.75h14Z"/><path class="cls-1" d="M235.79,283.42a1.08,1.08,0,0,1-.34-.09l-21.6-11.76-21.56,11.76a.53.53,0,0,1-.33.09c-.19,0-.24-.14-.24-.47V279.1a.67.67,0,0,1,.38-.72l19.64-10.65a2.14,2.14,0,0,1,.81-.19h2.59a2.18,2.18,0,0,1,.77.19l19.68,10.65a.69.69,0,0,1,.48.72V283C236.07,283.28,236,283.42,235.79,283.42Zm-31.21,11.29-4.46,15.6a.6.6,0,0,1-.67.43H196c-.39,0-.58-.1-.58-.38a2.42,2.42,0,0,0,0-.24l4.75-15.89v-9.89c0-.43.15-.67.67-.67H204c.48,0,.72.24.72.67v9.55A2.18,2.18,0,0,1,204.58,294.71Zm22.23,16.08h-3.12a.59.59,0,0,1-.67-.67V284.34a.59.59,0,0,1,.67-.67h3.12a.62.62,0,0,1,.67.71v25.69C227.48,310.55,227.24,310.79,226.81,310.79Z"/><path class="cls-1" d="M283.5,283.67a.51.51,0,0,1-.34-.1L261.8,270.9l-21.36,12.67a.51.51,0,0,1-.34.1c-.14,0-.24-.15-.24-.44v-3.5a.68.68,0,0,1,.43-.72L259,267.73a1.4,1.4,0,0,1,.77-.24h4.17a1.37,1.37,0,0,1,.72.24L283.35,279a.83.83,0,0,1,.48.72v3.5C283.83,283.52,283.74,283.67,283.5,283.67Zm-3.22,26.54H243.37c-.72,0-1.11-.29-1.11-1v-15.8a1,1,0,0,1,1.11-1.1h36.91a1,1,0,0,1,1.11,1.1v15.8C281.39,309.88,281,310.21,280.28,310.21Zm-3.22-23.91H246.68c-.48,0-.67-.23-.67-.67V283c0-.43.19-.67.62-.67h30.43a.61.61,0,0,1,.68.67v2.54C277.74,286.07,277.5,286.3,277.06,286.3Zm.2,9.75H246.39v10.42h30.87Z"/><path class="cls-1" d="M329.05,310.5h-9.27c-.48,0-.67-.19-.67-.67v-2.4c0-.43.19-.68.63-.68H326V272.34H293.77v37.73c0,.48-.24.67-.72.67h-2.79c-.43,0-.67-.14-.67-.62V269.65a1,1,0,0,1,1.1-1.11h38.36a1,1,0,0,1,1.1,1.11V309.4A1,1,0,0,1,329.05,310.5Zm-9-29.19H299.62a.61.61,0,0,1-.67-.67v-2.21a.61.61,0,0,1,.67-.67h20.45a.64.64,0,0,1,.72.67v2.21A.64.64,0,0,1,320.07,281.31Zm-.43,24.2H300.1c-.77,0-1.1-.34-1.1-1.06v-16.7c0-.72.33-1.11,1.05-1.11h19.64a1,1,0,0,1,1.1,1.11V304.4A1,1,0,0,1,319.64,305.51Zm-2.74-15.17H302.84v11.52H316.9Z"/><path class="cls-1" d="M379.88,309.83h-31c-.53,0-.77-.15-.77-.67v-2.88c0-.53.24-.77.67-.77h27.7v-14H353a.64.64,0,0,1-.72-.72V288c0-.53.19-.72.72-.72h23.57V274h-27.6c-.53,0-.77-.2-.77-.72v-2.88c0-.53.24-.72.77-.72h31a1,1,0,0,1,1.1,1.1v38C381,309.49,380.6,309.83,379.88,309.83Z"/><path class="cls-1" d="M405.61,284.1H393.7l-3.55,2.78V309.4a.64.64,0,0,1-.72.67h-3a.59.59,0,0,1-.67-.67V285.78a1.09,1.09,0,0,1,.48-.82l5.81-4.7a1.32,1.32,0,0,1,1-.34h12.58a.59.59,0,0,1,.67.67v2.83A.61.61,0,0,1,405.61,284.1Z"/><path class="cls-1" d="M436.33,309.92h-26c-.72,0-1.06-.33-1.06-1.05V281a.94.94,0,0,1,1.06-1.06h22.7v-9.6c0-.48.19-.67.67-.67h3c.48,0,.67.24.67.72v38.45C437.38,309.59,437.05,309.92,436.33,309.92Zm-3.27-25.82H413.62v21.69h19.44Z"/><path class="cls-1" d="M479.24,309.88h-3.07c-.43,0-.63-.25-.63-.72V277.28L463,301.67a1,1,0,0,1-.91.43h-2.3a.86.86,0,0,1-.82-.43l-12.53-24.39v31.88c0,.47-.19.72-.62.72h-3.07c-.44,0-.63-.25-.63-.72V270.61a.86.86,0,0,1,.87-1h3.26a1.28,1.28,0,0,1,1.1.57l13.73,26.26,13.45-26.21a1.17,1.17,0,0,1,1.2-.62H479c.58,0,.86.29.86,1v38.55C479.86,309.63,479.67,309.88,479.24,309.88Z"/><path class="cls-1" d="M488.74,274.69h-3.07A.59.59,0,0,1,485,274v-3.89a.59.59,0,0,1,.62-.67h3.12a.59.59,0,0,1,.67.67V274C489.41,274.45,489.22,274.69,488.74,274.69Zm0,35.28h-3.07c-.43,0-.67-.19-.67-.62v-29a.59.59,0,0,1,.62-.67h3.12c.48,0,.67.29.67.72V309.3C489.41,309.78,489.22,310,488.74,310Z"/><path class="cls-1" d="M522.34,309.83h-3.65c-.43,0-.57-.1-.72-.39l-8.64-13.1H507l-8.64,13.1a.82.82,0,0,1-.82.39h-3.6c-.28,0-.43-.15-.43-.39a.92.92,0,0,1,.15-.43l9.88-14.59-9.64-13.73a.76.76,0,0,1-.1-.43c0-.24.14-.34.48-.34h3.5c.48,0,.58.1.77.34l8.5,12.09h2.26l8.44-12.09a.76.76,0,0,1,.77-.34h3.55c.29,0,.48.1.48.29a.74.74,0,0,1-.19.48l-9.55,13.73L522.63,309a1.19,1.19,0,0,1,.19.48C522.82,309.68,522.68,309.83,522.34,309.83Z"/></svg>